<svg width="40" height="40" viewBox="0 0 40 40" fill="none" xmlns="http://www.w3.org/2000/svg">
<path fill-rule="evenodd" clip-rule="evenodd" d="M19.9997 36.5069C17.0799 36.5069 14.2043 35.7297 11.6881 34.2601C11.4186 34.1023 11.1154 34.0206 10.8086 34.0206C10.6526 34.0206 10.4973 34.0412 10.3457 34.0836L4.87657 35.5831L6.78092 31.3871C7.0404 30.817 6.97366 30.1514 6.60751 29.6443C4.56968 26.8199 3.49307 23.4859 3.49307 19.9997C3.49307 10.8977 10.8984 3.49307 19.9997 3.49307C29.1016 3.49307 36.5063 10.8977 36.5063 19.9997C36.5063 29.1016 29.1016 36.5069 19.9997 36.5069ZM19.9997 0C8.97157 0 0 8.9722 0 19.9997C0 23.8789 1.10219 27.6052 3.19429 30.8382L0.156564 37.5311C-0.123505 38.1487 -0.0218317 38.871 0.417297 39.3868C0.753505 39.7811 1.24253 40 1.74653 40C1.9006 40 2.05592 39.98 2.20874 39.9376L10.5796 37.6416C13.4701 39.1866 16.7106 40 19.9997 40C31.0278 40 39.9994 31.0278 39.9994 19.9997C39.9994 8.9722 31.0278 0 19.9997 0Z" fill="white"/>
</svg>
