<svg width="40" height="40" viewBox="0 0 40 40" fill="none" xmlns="http://www.w3.org/2000/svg">
<path fill-rule="evenodd" clip-rule="evenodd" d="M21.7276 32.0407C15.9989 29.8013 11.3308 25.5571 8.58395 20.094L8.40758 19.746C8.30482 19.5421 8.29813 19.3039 8.38829 19.0932C8.47844 18.883 8.65915 18.7247 8.87844 18.6574L9.25954 18.5428C10.1178 18.2869 10.8902 17.8027 11.495 17.1404L12.7383 15.7794C13.6217 14.8109 14.0737 13.5601 14.0068 12.2553C14.0001 12.1274 13.9847 12.0022 13.9682 11.8782C13.8182 10.7061 13.2717 9.6667 12.3867 8.87574L10.2875 6.99303C9.38041 6.18081 8.2064 5.73238 6.98239 5.73238C6.72491 5.73238 6.45128 5.75836 6.14302 5.81073C5.25798 5.96191 4.43239 6.34893 3.75326 6.92846C3.5757 7.07965 3.43948 7.21036 3.3198 7.33989L2.0761 8.70369C1.93712 8.8533 1.80681 9.01866 1.68319 9.19464C1.66232 9.22378 1.64146 9.25134 1.61783 9.27732L1.55957 9.33913C1.5387 9.36394 1.51508 9.38756 1.4887 9.40803C0.649333 10.1195 -0.399483 12.2085 0.154846 15.0479C0.298153 15.7825 0.472955 16.5243 0.691065 17.3153C4.1005 29.7159 15.0627 38.818 27.967 39.9645C29.3233 40.0869 30.6248 39.8916 31.7362 39.4003C32.002 39.2829 32.2201 39.1719 32.4036 39.0589C32.8784 38.7877 33.2843 38.4632 33.6288 38.0861L34.8736 36.7223C35.0571 36.5211 35.2264 36.2931 35.4055 36.0014C35.6933 35.54 35.8961 35.0628 36.0103 34.5809C36.4268 32.8372 35.8587 31.0123 34.5252 29.8178L32.4256 27.9394C31.7851 27.3658 30.9961 26.9666 30.1429 26.7863C29.7929 26.7119 29.4465 26.6749 29.1162 26.6749C27.7241 26.6749 26.389 27.2611 25.454 28.2835L24.2119 29.6474C23.7532 30.1481 23.4115 30.7265 23.1945 31.3651L23.0823 31.6938C23.0142 31.8946 22.867 32.0584 22.6737 32.149C22.4804 32.2387 22.2583 32.247 22.0583 32.1714L21.7276 32.0407ZM32.3626 7.56666C29.2949 4.52842 25.0587 2.64611 20.3879 2.64611C20.0213 2.64611 19.6871 2.49729 19.4449 2.25634C19.2036 2.01736 19.0536 1.68664 19.0536 1.32286C19.0536 0.960252 19.2036 0.629538 19.4453 0.389377C19.6867 0.148821 20.0205 0 20.3879 0C25.7949 0 30.6981 2.17878 34.2488 5.69616C37.8 9.21354 40 14.0711 40 19.4263C40 19.7913 39.8496 20.122 39.6087 20.361C39.3657 20.5996 39.0315 20.748 38.665 20.748C38.2976 20.748 37.963 20.5996 37.7221 20.361C37.4807 20.122 37.3307 19.7913 37.3307 19.4263C37.3307 14.8006 35.4303 10.6049 32.3626 7.56666ZM27.6898 12.1947C25.765 10.2876 23.1064 9.10567 20.1757 9.10567C19.8087 9.10567 19.4745 8.95724 19.2327 8.71826C18.9898 8.47928 18.8398 8.14856 18.8398 7.78399C18.8398 7.41902 18.9898 7.08791 19.2312 6.84854C19.4729 6.60956 19.8071 6.46113 20.1757 6.46113C23.843 6.46113 27.1689 7.9395 29.5768 10.325C31.9855 12.7105 33.478 16.0066 33.478 19.6385C33.478 20.0019 33.328 20.333 33.0866 20.5724C32.8453 20.813 32.5114 20.9614 32.1437 20.9614C31.7748 20.9614 31.4406 20.813 31.1992 20.574C30.9579 20.3346 30.8075 20.0035 30.8075 19.6385C30.8075 16.7349 29.6146 14.1014 27.6898 12.1947Z" fill="white"/>
</svg>
