<svg width="40" height="40" viewBox="0 0 40 40" fill="none" xmlns="http://www.w3.org/2000/svg">
<path fill-rule="evenodd" clip-rule="evenodd" d="M19.9997 36.5069C17.0799 36.5069 14.2043 35.7297 11.6881 34.2601C11.4186 34.1023 11.1154 34.0206 10.8086 34.0206C10.6526 34.0206 10.4973 34.0412 10.3457 34.0836L4.87657 35.5831L6.78092 31.3871C7.0404 30.817 6.97366 30.1514 6.60751 29.6443C4.56968 26.8199 3.49307 23.4859 3.49307 19.9997C3.49307 10.8977 10.8984 3.49307 19.9997 3.49307C29.1016 3.49307 36.5063 10.8977 36.5063 19.9997C36.5063 29.1016 29.1016 36.5069 19.9997 36.5069ZM19.9997 0C8.97157 0 0 8.9722 0 19.9997C0 23.8789 1.10219 27.6052 3.19429 30.8382L0.156564 37.5311C-0.123505 38.1487 -0.0218317 38.871 0.417297 39.3868C0.753505 39.7811 1.24253 40 1.74653 40C1.9006 40 2.05592 39.98 2.20874 39.9376L10.5796 37.6416C13.4701 39.1866 16.7106 40 19.9997 40C31.0278 40 39.9994 31.0278 39.9994 19.9997C39.9994 8.9722 31.0278 0 19.9997 0Z" fill="white"/>
<path fill-rule="evenodd" clip-rule="evenodd" d="M27.6895 22.9953C26.8512 22.4938 25.7609 21.9343 24.7741 22.3385C24.0168 22.6479 23.5334 23.8324 23.045 24.4381C22.7924 24.7487 22.4923 24.7974 22.105 24.6408C19.2625 23.5093 17.0849 21.6125 15.5168 18.9983C15.2523 18.5928 15.2997 18.2722 15.6204 17.8961C16.0938 17.3378 16.6882 16.7041 16.8167 15.9531C16.9446 15.2021 16.5922 14.3232 16.2815 13.6545C15.8848 12.7987 15.4407 11.5786 14.5849 11.0952C13.7971 10.6505 12.7592 10.8993 12.058 11.4707C10.8467 12.4563 10.2616 14.0013 10.2797 15.5333C10.2847 15.9687 10.339 16.4022 10.44 16.822C10.6839 17.8331 11.1511 18.7762 11.6763 19.6732C12.0736 20.3493 12.5034 21.0062 12.9681 21.6368C14.4876 23.7014 16.3789 25.4954 18.5683 26.8365C19.663 27.5064 20.8406 28.094 22.0601 28.4969C23.4292 28.9498 24.6481 29.4195 26.1264 29.1388C27.6727 28.845 29.1978 27.8875 29.8122 26.3973C29.9931 25.9551 30.0842 25.4636 29.9837 24.9976C29.7735 24.0339 28.4674 23.4613 27.6895 22.9953Z" fill="white"/>
</svg>
