<svg width="796" height="710" viewBox="0 0 796 710" fill="none" xmlns="http://www.w3.org/2000/svg">
<path d="M185.831 302.419L169.365 307.943L185.525 297.721C185.393 296.161 185.23 294.588 185.032 293.004L176.338 294.687L184.567 289.561C182.685 277.345 178.495 262.014 172.745 246.366L140.697 258.815L171.322 242.564C163.281 221.539 152.536 200.361 140.876 185.755L123.65 197.991L137.385 181.608C126.773 169.731 115.567 163.685 105.053 168.359C92.2795 174.04 88.6187 201.583 92.552 234.797L101.179 234.643L92.7435 236.341C94.5585 250.876 97.8089 266.433 102.371 281.689L135.273 270.512L103.858 286.515C110.807 308.318 120.435 329.183 132.372 345.172L145.345 332.117L134.805 348.323C144.856 360.894 156.44 370.008 169.365 373.446C169.365 373.446 187.655 342.512 185.831 302.419Z" fill="#03673D" fill-opacity="0.760784"/>
<path d="M171.25 373.446C171.25 373.446 189.539 342.512 187.716 302.419L171.25 307.943L187.409 297.721C187.277 296.161 187.114 294.588 186.917 293.004L178.223 294.687L186.452 289.561C184.569 277.345 180.379 262.014 174.63 246.368L142.582 258.815L173.207 242.566C165.166 221.539 154.42 200.361 142.76 185.755L125.534 197.993L139.269 181.608C128.658 169.731 117.452 163.685 106.938 168.359C106.938 168.359 154.764 283.103 170.32 373.173C170.631 373.26 170.938 373.363 171.25 373.446Z" fill="#04AD66" fill-opacity="0.760784"/>
<path d="M160.965 398.656L148.78 401.518L159.908 395.451C158.763 392.161 157.397 388.728 155.753 385.142C152.369 377.765 147.528 369.325 141.92 361.163L130.958 369.546L138.68 356.595C121.679 333.403 99.3307 314.652 88.3434 332.897C83.8274 340.394 83.5292 352.331 86.6479 365.75L111.587 364.869L87.5435 369.304C90.0332 378.461 94.0299 388.163 99.2978 397.531L107.714 393.72L100.463 399.559C106.014 409.044 112.867 418.108 120.77 425.817L137.931 406.978L123.142 428.063C133.537 437.591 145.612 444.742 158.853 447.527C158.853 447.527 170.903 430.516 160.965 398.656Z" fill="#10794D" fill-opacity="0.760784"/>
<path d="M157.87 447.298C158.199 447.373 158.525 447.457 158.855 447.526C158.855 447.526 170.907 430.515 160.968 398.658L148.782 401.518L159.911 395.451C158.766 392.161 157.399 388.728 155.755 385.143C152.373 377.766 147.531 369.326 141.922 361.162L130.961 369.547L138.682 356.596C122.657 334.733 101.884 316.832 90.3492 330.13C99.5874 342.668 138.514 396.979 157.87 447.298Z" fill="#04AD66" fill-opacity="0.760784"/>
<path d="M123.444 433.682C116.641 427.215 104.504 419.277 90.4137 411.979C84.3027 421.066 77.4813 431.327 76.3074 433.575C76.1399 433.976 76.0771 434.114 76.153 433.908C76.1797 433.831 76.2333 433.718 76.3074 433.575C77.2954 431.218 82.078 419.353 85.9523 409.725C77.4995 405.55 68.5005 401.672 59.6233 398.509L54.7916 421.58L57.0177 397.599C29.3342 388.148 3.52269 386.107 0.235207 404.407C-0.673482 409.465 1.08865 415.084 4.86547 420.966C15.476 420.341 30.8252 419.339 30.8252 419.339L8.44738 425.883C16.6548 436.061 30.1372 446.757 45.7699 456.532L59.1995 430.3L48.2221 458.042C64.688 468.095 83.276 477.064 100.465 483.335C101.923 476.866 102.989 472.178 102.989 472.178L103.206 484.314C106.514 485.477 109.761 486.532 112.923 487.472L114.345 481.877L115.278 488.152C131.022 492.596 144.41 493.981 152.08 490.76C152.08 490.76 158.18 466.706 123.444 433.682Z" fill="#007248" fill-opacity="0.760784"/>
<path d="M218.79 260.972C235.378 219.848 258.068 211.263 267.34 212.111C282.715 210.076 283.523 237.05 282.005 250.792H258.742L282.005 255.373C281.6 277.361 275.767 300.841 272.902 309.833L244.075 304.234L272.902 313.904C265.619 341.592 254.696 367.177 250.144 376.507L220.812 362.765L248.627 379.561L245.087 385.668L236.995 384.141L244.075 387.704C231.534 413.356 208.169 423.841 198.054 425.877C189.559 415.697 187.097 396.188 186.928 387.704L202.1 384.141H186.928C185.31 369.484 190.3 344.103 192.997 333.245L204.629 338.335L193.503 330.7L195.02 325.61L219.8 333.245L197.043 318.994C199.471 304.743 211.203 276.75 216.766 264.534L232.444 266.57L218.79 260.972Z" fill="#096B42" fill-opacity="0.760784"/>
<path d="M244.319 388.568C231.516 413.959 208.231 424.729 198.189 426.94C213.251 322.339 253.106 240.287 271.15 212.336C283.577 214.611 283.86 239.497 282.448 251.657L259.382 250.709L282.448 254.973C280.941 279.986 276.172 302.347 273.975 310.401L242.908 303.768L272.563 313.717C265.407 344.794 254.518 368.671 249.968 376.724L221.254 362.512L249.026 379.566L245.261 386.198L237.258 384.304L244.319 388.568Z" fill="#0EA867" fill-opacity="0.760784"/>
<path fill-rule="evenodd" clip-rule="evenodd" d="M182.699 573.112C182.699 573.113 182.699 573.114 182.095 573.073L182.699 573.114C182.678 573.435 182.413 573.684 182.093 573.683C181.774 573.682 181.51 573.43 181.491 573.11C179.16 533.749 163.739 503.625 143.708 480.731C123.987 459.176 100.72 443.306 77.7598 431.644C77.7856 431.601 77.8117 431.559 77.8388 431.515C62.6103 423.895 49.5273 419.104 41.963 416.334L41.962 416.333C40.2314 415.7 38.7898 415.172 37.6773 414.739C23.9382 410.153 11.3095 406.965 0.859253 404.77C0.871264 404.675 0.880186 404.579 0.889108 404.483C0.903177 404.327 0.91759 404.172 0.945043 404.02C4.20301 386.374 29.8948 388.366 57.4547 397.505L55.312 420.099C55.3315 420.106 55.3511 420.114 55.371 420.123L60.049 398.383C68.8871 401.443 77.847 405.192 86.2654 409.224C83.1365 416.769 79.417 425.729 77.6071 430.042C77.9005 430.188 78.1946 430.334 78.4897 430.482C81.0617 426.456 86.4116 418.592 91.3116 411.457C105.518 418.662 117.756 426.499 124.614 432.882C159.639 465.475 153.507 489.193 153.507 489.193C153.167 489.333 152.812 489.462 152.447 489.581C167.282 509.364 178.521 533.871 181.933 564.095C182.146 558.765 182.38 551.199 182.49 541.788C182.719 522.142 182.407 494.461 180.243 462.327C175.394 398.454 163 317.025 134.556 244.786C134.427 244.476 134.572 244.119 134.881 243.989C135.189 243.859 135.544 244.006 135.673 244.315C165.365 315.703 177.117 397.91 181.451 462.244C183.617 494.417 183.93 522.13 183.7 541.802C183.586 551.637 183.335 559.464 183.114 564.831C183.003 567.516 182.899 569.584 182.823 570.984C182.785 571.684 182.754 572.215 182.733 572.574C182.726 572.693 182.72 572.793 182.715 572.873L182.708 572.977L182.702 573.08L182.7 573.105L182.699 573.112Z" fill="#128E5A" fill-opacity="0.760784"/>
<path d="M115.459 365.648C115.459 365.648 182.095 459.223 182.095 573.073C192.168 374.226 243.378 265.869 243.378 265.869" stroke="#014D2D" stroke-opacity="0.760784" stroke-width="0.2646" stroke-miterlimit="22.9256" stroke-linecap="round" stroke-linejoin="round"/>
<path d="M203.858 541.586H150.411C150.411 541.586 136.021 656.249 182.273 669.557C228.525 682.867 203.858 541.586 203.858 541.586Z" fill="#AC6352" fill-opacity="0.760784"/>
<path d="M213.254 541.586H163.143C163.143 541.586 151.804 656.249 188.247 669.557C246.204 676.128 213.254 541.586 213.254 541.586Z" fill="#984B39" fill-opacity="0.760784"/>
<path d="M457.152 52.3397V69.7369H525.177V52.3397H457.152Z" fill="#FF1F55" fill-opacity="0.760784"/>
<path d="M454.415 34.9435V52.3397H522.439V34.9435H454.415Z" fill="#FFC702" fill-opacity="0.760784"/>
<path d="M527.796 -4.76837e-07L511.616 6.12738L535.609 70.2138L551.791 64.0874L527.796 -4.76837e-07Z" fill="#3D99EE" fill-opacity="0.760784"/>
<path d="M648.994 84.8287H462.454C458.476 84.8287 454.66 83.2387 451.846 80.4078C449.032 77.5779 447.452 73.7392 447.452 69.7368H663.995C663.995 73.7392 662.415 77.5769 659.601 80.4078C656.789 83.2377 652.972 84.8277 648.994 84.8287Z" fill="#6F2A1A" fill-opacity="0.760784"/>
<path d="M652.542 3.81139H569.956V69.7358H652.542V3.81139Z" fill="#BDD8F5" fill-opacity="0.760784"/>
<path d="M647.022 10.2869H575.483V63.2472H647.022V10.2869Z" fill="#FB4C47" fill-opacity="0.760784"/>
<path d="M611.252 53.7612C620.578 53.7612 628.138 46.1557 628.138 36.774C628.138 27.3922 620.578 19.7867 611.252 19.7867C601.924 19.7867 594.364 27.3922 594.364 36.774C594.364 46.1557 601.924 53.7612 611.252 53.7612Z" fill="#FFC700" fill-opacity="0.760784"/>
<path d="M631.634 63.2472H575.483V37.8888C585.176 37.5196 599.494 38.7055 613.021 46.5276C620.311 50.7417 626.65 56.436 631.634 63.2472Z" fill="#1DB776" fill-opacity="0.760784"/>
<path d="M647.019 28.4173V63.2482H601.999C604.884 57.1882 608.592 51.5609 613.018 46.5283C620.703 37.8349 631.668 30.3454 647.019 28.4173Z" fill="#11915B" fill-opacity="0.760784"/>
<path d="M491.246 97.9303H477.785L479.645 69.7358H489.387L491.246 97.9303Z" fill="#592A3C" fill-opacity="0.760784"/>
<path d="M633.666 97.9303H620.205L622.064 69.7358H631.807L633.666 97.9303Z" fill="#592A3C" fill-opacity="0.760784"/>
<path d="M360.604 155.223H218.174V88.1642H360.604V155.223ZM224.281 149.081H354.498V94.3079H224.279L224.281 149.081Z" fill="#925C50" fill-opacity="0.760784"/>
<path d="M354.498 94.3078H224.28V149.081H354.498V94.3078Z" fill="white" fill-opacity="0.760784"/>
<path d="M253.237 134.82C264.209 132.234 271.021 121.19 268.45 110.152C265.879 99.1146 254.899 92.2633 243.926 94.8494C232.953 97.4351 226.142 108.48 228.713 119.517C231.284 130.555 242.264 137.406 253.237 134.82Z" fill="#FFC700" fill-opacity="0.760784"/>
<path d="M224.28 131.788L262.99 114.399C266.074 113.014 269.476 112.501 272.828 112.918C276.18 113.334 279.355 114.664 282.011 116.763L322.921 149.081H224.281L224.28 131.788Z" fill="#11915B" fill-opacity="0.760784"/>
<path d="M291.868 124.55L321.026 114.853C324.144 113.816 327.48 113.63 330.692 114.314C333.905 114.999 336.88 116.529 339.312 118.748L354.497 132.603V149.084H322.92L291.868 124.55Z" fill="#1DB776" fill-opacity="0.760784"/>
<path d="M702.718 230.089V606.656" stroke="#925D51" stroke-opacity="0.760784" stroke-width="1.5372" stroke-miterlimit="22.9256"/>
<path d="M629.728 228.75C629.728 228.75 693.409 255.921 775.051 225.553L730.962 124.861L665.654 123.262L629.728 228.75Z" fill="#AC6352" fill-opacity="0.760784"/>
<path d="M748.246 164.336C722.587 193.583 680.914 205.899 637.187 206.849L629.728 228.75C629.728 228.75 693.409 255.921 775.052 225.553L748.246 164.336Z" fill="#984B39" fill-opacity="0.760784"/>
<path d="M144.172 664.56H788.31C792.556 664.56 796 668.026 796 672.299V672.3C796 676.573 792.556 680.038 788.31 680.038L144.172 680.039C139.926 680.038 136.482 676.573 136.482 672.299L136.482 672.3C136.482 668.026 139.926 664.56 144.172 664.56L144.172 664.56Z" fill="#925D51" fill-opacity="0.760784"/>
<path fill-rule="evenodd" clip-rule="evenodd" d="M466.813 327.732C466.081 327.617 465.336 327.561 464.582 327.561H296.973H296.828C285.251 327.56 275.89 327.56 275.89 370.358V599.761C275.89 593.995 278.85 595.611 283.499 598.15C287.153 600.145 291.85 602.71 296.973 602.71H464.582C466.189 602.71 467.753 602.457 469.256 602.05H633.467C640.589 602.05 647.118 599.493 652.198 597.504C658.66 594.973 662.774 593.361 662.774 599.109V370.399C662.774 327.731 649.762 327.731 633.668 327.732H633.467H466.813Z" fill="#FB4C47"/>
<path d="M306.094 560.244C306.094 575.7 297.313 588.229 286.484 588.229H243.341C232.51 588.229 223.729 575.7 223.729 560.244V459.497C223.729 444.041 232.51 431.511 243.341 431.511H286.484C297.313 431.511 306.094 444.041 306.094 459.497V560.244Z" fill="#EBAFB2"/>
<path d="M324.03 571.406C324.03 588.216 311.292 601.844 295.577 601.844H232.981C217.266 601.844 204.526 588.216 204.526 571.406V461.829C204.526 445.017 217.266 431.39 232.981 431.39H295.577C311.292 431.39 324.03 445.017 324.03 461.829V571.406Z" fill="#B63A37"/>
<path d="M763.326 571.666C763.326 588.53 750.764 602.2 735.267 602.2H673.537C658.04 602.2 645.477 588.53 645.477 571.666V461.747C645.477 444.883 658.04 431.213 673.537 431.213H735.267C750.764 431.213 763.326 444.883 763.326 461.747V571.666Z" fill="#B63A37"/>
<path d="M250.953 700.324C250.953 705.667 247.488 710 243.216 710C238.942 710 235.477 705.667 235.477 700.324V666.895C235.477 661.552 238.942 657.22 243.216 657.22C247.488 657.22 250.953 661.552 250.953 666.895V700.324Z" fill="#925D51"/>
<path d="M731.542 698.594C731.542 703.937 728.078 708.269 723.803 708.269C719.532 708.269 716.067 703.937 716.067 698.594V665.164C716.067 659.822 719.532 655.49 723.803 655.49C728.078 655.49 731.542 659.822 731.542 665.164V698.594Z" fill="#925D51"/>
<path d="M744.492 431.39H722.795C711.901 431.39 703.071 443.926 703.071 459.39V599.385H262.234V459.39C262.234 443.926 253.404 431.39 242.51 431.39H220.815C209.921 431.39 201.091 443.926 201.091 459.39V651.183C201.091 659.276 203.524 666.545 207.391 671.658C210.991 677.136 216.107 680.582 221.802 680.582L744.492 680.039C755.385 680.039 764.216 666.647 764.216 651.183V459.39C764.216 443.926 755.385 431.39 744.492 431.39Z" fill="#FB4C47"/>
<path d="M374.59 446.1H294.314C291.26 446.1 288.784 449.007 288.784 452.592V546.848C288.784 550.435 291.26 553.341 294.314 553.341H374.59C377.645 553.341 380.119 550.435 380.119 546.848V452.592C380.119 449.007 377.645 446.1 374.59 446.1Z" fill="white"/>
<path d="M685.239 456.344L612.238 443.522C609.461 443.034 606.711 445.508 606.097 449.048L589.944 542.093C589.33 545.633 591.084 548.898 593.86 549.386L666.863 562.209C669.639 562.697 672.389 560.222 673.004 556.682L689.156 463.637C689.77 460.097 688.017 456.832 685.239 456.344Z" fill="white"/>
<path fill-rule="evenodd" clip-rule="evenodd" d="M676.945 620.772C691.768 620.772 703.783 607.278 703.783 590.631V563.506C703.783 546.859 691.768 533.366 676.945 533.366H469.665C468.176 532.771 466.618 532.455 465.014 532.455H280.793C270.249 532.455 261.702 546.09 261.702 562.909V590.318C261.702 607.138 270.249 620.772 280.793 620.772H421.93C421.948 620.772 421.965 620.772 421.982 620.772H676.945Z" fill="#FC6F6A"/>
<path d="M539.939 527.689C539.865 527.699 539.785 527.709 539.711 527.72C524.857 529.897 509.795 531.897 494.689 533.072C493.824 533.136 492.957 533.205 492.088 533.258C476.103 534.402 460.075 534.574 444.213 533.003C439.01 532.488 433.821 531.778 428.688 530.833C417.211 528.723 409.474 517.805 411.333 506.216C413.083 495.335 414.226 485.027 414.979 475.336C415.091 473.895 415.2 472.472 415.29 471.062C416.051 459.751 416.298 449.334 416.38 439.872C416.383 439.067 416.39 438.271 416.393 437.484C416.393 437.128 416.401 436.773 416.401 436.425C416.403 435.885 416.403 435.35 416.403 434.822C416.411 434.46 416.411 434.104 416.411 433.756C416.411 433.018 416.414 432.299 416.411 431.579C416.421 429.366 416.414 427.217 416.421 425.131V424.577C416.424 417.356 416.454 410.892 416.742 405.225C416.753 404.965 416.763 404.714 416.784 404.46C416.847 403.283 416.906 402.115 416.963 400.965C417.014 399.849 417.069 398.744 417.108 397.65C417.228 394.582 417.308 391.624 417.357 388.8C417.387 386.424 417.387 384.148 417.35 381.988C417.305 379.591 417.22 377.346 417.086 375.266C417.034 374.578 416.987 373.867 416.932 373.137C416.847 372.032 416.755 370.885 416.661 369.707C416.604 368.991 416.543 368.27 416.471 367.536C416.439 367.216 416.414 366.892 416.383 366.563C416.38 366.481 416.369 366.403 416.364 366.329C416.322 365.875 416.281 365.423 416.242 364.963C416.196 364.516 416.152 364.069 416.108 363.618C416.037 362.83 415.96 362.027 415.874 361.217C415.504 357.44 415.074 353.474 414.637 349.408C414.494 348.135 414.354 346.842 414.212 345.547C413.986 343.541 413.758 341.514 413.537 339.496C413.385 338.193 413.238 336.889 413.094 335.588C410.878 315.987 408.794 297.22 409.535 291.264C410.818 280.951 460.445 253.732 460.445 253.732L490.234 252.79C490.234 252.79 532.047 269.741 539.761 279.973C539.802 280.024 539.837 280.076 539.875 280.122C541.624 282.533 542.726 285.882 543.356 290.021C543.921 293.661 544.121 297.906 544.079 302.668C544.061 306.057 543.914 309.709 543.696 313.583C543.466 317.69 543.154 322.048 542.81 326.612C542.712 327.94 542.609 329.285 542.505 330.645C542.398 332.029 542.296 333.424 542.191 334.837C542.123 335.749 542.056 336.671 541.989 337.594C541.807 340.033 541.629 342.516 541.469 345.032C541.417 345.844 541.36 346.665 541.308 347.487C541.274 348.004 541.244 348.531 541.217 349.052C541.184 349.586 541.153 350.118 541.123 350.655V350.665C541.096 351.158 541.065 351.647 541.042 352.139C541.006 352.675 540.982 353.211 540.956 353.75C540.906 354.737 540.854 355.725 540.815 356.723C540.773 357.546 540.74 358.376 540.709 359.205C540.697 359.351 540.692 359.506 540.692 359.655C540.664 360.19 540.644 360.727 540.629 361.259L540.621 361.539L540.614 361.672C540.593 362.373 540.57 363.086 540.55 363.791C540.522 364.639 540.502 365.485 540.481 366.329C540.472 366.718 540.469 367.119 540.462 367.515C540.451 367.865 540.449 368.226 540.441 368.58C540.441 368.761 540.438 368.935 540.438 369.12C540.428 369.607 540.421 370.096 540.415 370.598C540.409 371.43 540.407 372.274 540.407 373.137V374.503C540.409 376.893 540.434 379.39 540.481 381.988C540.499 383.06 540.522 384.148 540.547 385.252C540.573 386.421 540.604 387.603 540.633 388.8C540.709 391.316 540.79 393.887 540.892 396.504C540.903 396.887 540.914 397.265 540.932 397.65C540.939 397.808 540.943 397.962 540.949 398.118C540.98 398.972 541.013 399.828 541.052 400.695C541.106 401.942 541.163 403.202 541.213 404.46C541.27 405.822 541.364 407.266 541.483 408.788C541.629 410.694 541.818 412.713 542.046 414.847C542.096 415.346 542.153 415.851 542.213 416.359C542.306 417.178 542.398 418.011 542.512 418.858C542.574 419.39 542.636 419.918 542.707 420.458C542.75 420.799 542.793 421.142 542.84 421.485C543.004 422.768 543.182 424.087 543.37 425.429C543.39 425.578 543.411 425.726 543.43 425.875C543.528 426.555 543.633 427.237 543.725 427.933C543.917 429.257 544.125 430.609 544.334 431.979C544.395 432.363 544.453 432.754 544.513 433.141C544.876 435.473 545.266 437.865 545.674 440.31C545.745 440.736 545.822 441.173 545.894 441.61C546.057 442.572 546.224 443.543 546.392 444.519C546.978 447.921 547.601 451.403 548.25 454.939C549.008 459.028 549.797 463.188 550.616 467.38C551.286 470.827 551.98 474.295 552.68 477.762C554.321 485.873 556.027 493.98 557.71 501.801C560.337 513.98 552.192 525.89 539.939 527.689Z" fill="white"/>
<path d="M543.359 290.022C521.596 294.715 501.406 296.056 485.46 296.056C482.563 296.056 479.806 296.012 477.204 295.937C452.568 295.212 436.543 291.618 435.872 291.47L437.033 286.308L438.189 281.148H438.193C438.507 281.22 454.224 284.7 477.791 285.369C493.709 285.82 515.705 285.018 539.763 279.974C539.803 280.024 539.839 280.074 539.876 280.123C541.624 282.533 542.728 285.882 543.359 290.022Z" fill="#1DB776"/>
<path d="M544.079 302.668C544.058 306.057 543.911 309.709 543.694 313.583C522.409 318.136 502.565 319.478 486.591 319.478C482.635 319.478 478.917 319.396 475.472 319.259C450.852 318.289 434.869 314.536 434.201 314.376L436.621 304.077C436.779 304.115 452.49 307.787 476.163 308.695C493.361 309.358 517.678 308.626 544.079 302.668Z" fill="#1DB776"/>
<path d="M542.812 326.612C542.714 327.94 542.61 329.285 542.506 330.645C542.4 332.029 542.297 333.424 542.192 334.837C542.125 335.749 542.057 336.67 541.988 337.594C521.935 341.673 503.183 342.923 487.741 342.923C482.698 342.923 478.015 342.791 473.748 342.583C449.146 341.364 433.203 337.448 432.535 337.286L435.058 327.011C435.213 327.048 450.887 330.878 474.543 332.025C491.798 332.861 516.237 332.369 542.812 326.612Z" fill="#1DB776"/>
<path d="M541.126 350.654V350.665C541.099 351.16 541.069 351.646 541.045 352.139C541.011 352.675 540.986 353.211 540.959 353.75C540.908 354.737 540.858 355.725 540.817 356.723C540.777 357.545 540.743 358.375 540.713 359.205C540.701 359.35 540.695 359.506 540.695 359.655C540.667 360.19 540.647 360.727 540.634 361.258L540.624 361.539C521.644 365.228 503.843 366.399 488.891 366.399C482.747 366.399 477.089 366.204 472.02 365.9C447.436 364.437 431.532 360.36 430.868 360.19L433.492 349.944H433.496C433.64 349.981 437.611 350.989 444.489 352.159C451.366 353.33 461.147 354.666 472.918 355.355C490.141 356.365 514.54 356.12 541.126 350.654Z" fill="#1DB776"/>
<path d="M431.926 372.878L430.566 377.987L431.93 372.878H431.926ZM540.486 381.988C540.439 379.389 540.413 376.892 540.409 374.502C513.435 379.867 488.694 379.882 471.299 378.684C447.772 377.069 432.215 372.953 431.93 372.878L430.566 377.987L429.203 383.096C429.865 383.273 445.723 387.51 470.292 389.22C476.139 389.631 482.775 389.905 490.039 389.905C504.811 389.905 522.143 388.763 540.549 385.251C540.527 384.148 540.503 383.059 540.486 381.988Z" fill="#1DB776"/>
<path d="M541.484 408.787C523.255 412.279 506.02 413.44 491.182 413.44C482.788 413.44 475.164 413.068 468.561 412.543C444.013 410.579 428.196 406.186 427.532 406.002L428.949 400.907L430.36 395.811H430.362C430.613 395.882 446.136 400.16 469.673 402.018C487.512 403.423 513.098 403.634 540.951 398.117C540.982 398.973 541.017 399.829 541.055 400.694C541.108 401.94 541.165 403.201 541.217 404.461C541.274 405.821 541.367 407.265 541.484 408.787Z" fill="#1DB776"/>
<path d="M544.335 431.978C525.567 435.745 507.735 437.002 492.315 437.002C482.783 437.002 474.177 436.52 466.835 435.862C442.301 433.653 426.527 429.1 425.865 428.909L428.796 418.747V418.744C428.947 418.79 444.454 423.247 468.049 425.347C486.606 427.001 513.585 427.442 542.842 421.485C543.006 422.769 543.184 424.087 543.372 425.428C543.393 425.578 543.414 425.725 543.435 425.875C543.529 426.554 543.635 427.237 543.728 427.933C543.92 429.258 544.127 430.608 544.335 431.978Z" fill="#1DB776"/>
<path d="M548.251 454.938C528.558 459.181 509.737 460.59 493.431 460.59C482.762 460.59 473.168 459.987 465.102 459.181C440.585 456.724 424.853 452.014 424.195 451.812L427.227 441.682C427.379 441.726 442.844 446.341 466.421 448.679C486.046 450.625 515.108 451.309 546.394 444.519C546.98 447.921 547.6 451.402 548.251 454.938Z" fill="#1DB776"/>
<path d="M552.681 477.763C531.875 482.606 511.882 484.21 494.54 484.21C482.724 484.21 472.142 483.467 463.372 482.496C438.876 479.793 423.183 474.923 422.528 474.718L424.097 469.666L425.659 464.616L425.663 464.62C425.906 464.692 441.311 469.44 464.797 472.011C485.608 474.285 517.065 475.248 550.616 467.379C551.286 470.827 551.98 474.294 552.681 477.763Z" fill="#1DB776"/>
<path d="M472.569 513.454C473.576 469.83 466.154 419.069 466.217 375.432C466.273 336.306 469.114 295.808 469.083 256.683C373.92 263.883 395.472 371.637 397.598 444.403C399.25 501.02 398.594 536.915 452.09 543.795C457.115 544.442 462.05 545.012 466.883 545.49C466.964 532.543 472.271 526.433 472.569 513.454Z" fill="#FBB243"/>
<path d="M414.535 398.426C413.96 398.426 413.442 398.021 413.317 397.43C413.173 396.753 413.602 396.086 414.276 395.94C414.958 395.792 431.015 392.113 436.551 372.765C436.739 372.097 437.432 371.715 438.095 371.905C438.756 372.096 439.14 372.792 438.948 373.458C432.987 394.302 415.535 398.239 414.794 398.397C414.707 398.416 414.619 398.426 414.535 398.426Z" fill="#C7831E"/>
<path d="M461.236 504.861C460.718 504.861 460.282 504.454 460.254 503.926C455.947 425.808 452.521 349.447 457.833 274.077C457.872 273.531 458.345 273.123 458.884 273.16C459.428 273.198 459.836 273.672 459.798 274.218C454.491 349.472 457.916 425.764 462.22 503.815C462.249 504.362 461.833 504.829 461.291 504.859C461.272 504.861 461.255 504.861 461.236 504.861Z" fill="#C7831E"/>
<path d="M565.423 317.333C566.713 277.03 547.425 266.393 508.934 260.583C508.784 260.56 508.637 260.538 508.487 260.518C507.868 267.175 508.095 273.937 508.527 280.584C509.217 291.215 510.444 301.784 510.867 312.432C512.646 356.865 516.967 387.044 513.42 445.363C510.752 489.194 517.714 512.2 518.934 545.413C540.784 542.054 557.981 533.104 568.571 514.942C588.438 480.869 564.136 357.635 565.423 317.333Z" fill="#FBB243"/>
<path d="M560.903 397.066C560.81 397.066 560.718 397.058 560.623 397.035C560.366 396.975 534.774 390.655 530.448 353.196C530.369 352.508 530.859 351.884 531.544 351.805C532.233 351.72 532.848 352.219 532.926 352.907C537.051 388.623 560.939 394.532 561.181 394.586C561.852 394.741 562.273 395.415 562.119 396.091C561.988 396.671 561.473 397.066 560.903 397.066Z" fill="#C7831E"/>
<path d="M521.87 497.694C521.397 497.694 520.98 497.35 520.9 496.863C519.096 485.834 519.787 456.247 520.459 427.635C520.969 405.868 521.451 385.309 520.888 372.924C518.986 330.994 513.294 272.431 513.236 271.845C513.183 271.302 513.578 270.817 514.119 270.763C514.656 270.711 515.142 271.107 515.195 271.651C515.251 272.238 520.95 330.849 522.855 372.832C523.419 385.286 522.937 405.878 522.426 427.681C521.757 456.203 521.068 485.696 522.843 496.542C522.931 497.08 522.568 497.592 522.031 497.68C521.977 497.688 521.924 497.694 521.87 497.694Z" fill="#C7831E"/>
<path d="M527.603 208.285C527.603 208.285 532.567 196.883 530.835 184.736C536.26 180.515 539.255 172.221 539.255 172.221C536.622 174.871 530.902 174.459 530.902 174.459C534.239 172.079 538.483 162.169 538.483 162.169C533.606 164.404 525.936 165.951 521.125 166.349C523.419 164.167 525.229 163.217 526.115 161.412C524.344 162.687 519.359 163.43 516.698 163.563C504.3 156.114 488.725 154.053 475.449 160.424C470.553 160.58 460.889 161.986 456.449 170.257C456.449 170.257 460.7 166.111 463.803 166.145C463.803 166.145 454.361 174.826 455.178 182.958C455.178 182.958 457.42 178.103 460.154 175.434C460.032 175.708 459.914 175.982 459.802 176.259C453.141 192.747 463.34 203.594 463.34 203.594L527.603 208.285Z" fill="#002014"/>
<path d="M485.343 272.261C492.486 274.258 495.344 271.07 497.537 268.7L499.013 255.811L499.877 248.293L500.056 247.186L496.772 246.819L472.539 239.784L469.261 255.271L467.703 262.613C470.818 265.572 474.958 269.359 485.343 272.261Z" fill="#FBB990"/>
<path d="M499.012 255.811C491.502 259.218 476.691 257.67 469.259 255.27C469.233 255.267 469.214 255.258 469.188 255.249L472.537 239.784L496.77 246.819L500.054 247.186L499.875 248.292L499.012 255.811Z" fill="#181818"/>
<path d="M518.798 208.209C518.798 208.209 533.187 204 530.365 216.794C527.254 230.881 515.8 226.882 513.827 225.97L518.798 208.209Z" fill="#FB9476"/>
<path d="M520.407 221.788C520.38 221.784 520.352 221.777 520.325 221.77C519.908 221.66 519.656 221.232 519.765 220.811C521.365 214.602 525.909 212.45 526.1 212.361C526.493 212.183 526.957 212.355 527.136 212.751C527.314 213.145 527.144 213.611 526.753 213.792C526.582 213.872 522.684 215.754 521.278 221.207C521.176 221.6 520.798 221.847 520.407 221.788Z" fill="#FA7764"/>
<path d="M525.556 219.174C525.334 219.141 525.129 219.014 525.005 218.808C524.982 218.773 524.021 217.236 522.644 217.219C522.215 217.217 521.867 216.86 521.871 216.425C521.878 215.991 522.23 215.643 522.662 215.648C524.905 215.671 526.281 217.893 526.337 217.987C526.562 218.359 526.444 218.842 526.077 219.068C525.914 219.167 525.73 219.2 525.556 219.174Z" fill="#FA7764"/>
<path d="M526.689 206.455C525.794 211.542 524.417 216.487 522.702 221.123C521.93 223.224 521.08 225.259 520.181 227.216C513.84 241.008 504.726 250.945 497.447 251.805C485.92 253.169 472.836 247.502 466.421 232.375C465.373 229.903 464.275 226.918 463.75 223.399C463.679 222.911 463.61 222.411 463.551 221.9C461.671 206.183 465.632 183.777 465.632 183.777C475.079 169.582 495.389 173.365 507.171 175.317C518.962 177.273 530.794 183.169 526.689 206.455Z" fill="#FFC29C"/>
<path d="M494.258 243.682C491.756 243.307 490.277 242.165 490.214 242.116C489.873 241.849 489.812 241.355 490.076 241.013C490.341 240.67 490.83 240.608 491.17 240.874C491.196 240.894 492.521 241.887 494.729 242.16C496.981 242.436 498.49 241.913 498.503 241.908C498.909 241.763 499.357 241.977 499.502 242.384C499.647 242.79 499.438 243.241 499.034 243.387C498.96 243.415 497.184 244.045 494.541 243.721C494.444 243.71 494.351 243.696 494.258 243.682Z" fill="#FB9476"/>
<path d="M450.386 394.531C449.885 394.531 449.419 394.209 449.257 393.703C447.559 388.442 446.389 382.508 446.339 382.258C446.213 381.609 446.631 380.983 447.274 380.854C447.915 380.727 448.541 381.147 448.668 381.796C448.68 381.856 449.862 387.843 451.514 392.967C451.717 393.593 451.375 394.268 450.752 394.471C450.631 394.512 450.507 394.531 450.386 394.531Z" fill="#108A57"/>
<path d="M456.724 392.39C456.228 392.39 455.767 392.076 455.6 391.579C453.834 386.342 452.586 380.426 452.534 380.178C452.398 379.532 452.809 378.898 453.451 378.761C454.092 378.625 454.72 379.038 454.856 379.682C454.869 379.744 456.129 385.711 457.848 390.81C458.059 391.436 457.725 392.113 457.105 392.325C456.978 392.369 456.85 392.39 456.724 392.39Z" fill="#108A57"/>
<path d="M463.068 390.249C462.579 390.249 462.121 389.943 461.949 389.452C460.115 384.241 458.79 378.345 458.734 378.096C458.591 377.453 458.991 376.813 459.632 376.669C460.269 376.525 460.906 376.928 461.049 377.573C461.063 377.632 462.401 383.58 464.186 388.655C464.406 389.277 464.081 389.958 463.465 390.179C463.333 390.226 463.199 390.249 463.068 390.249Z" fill="#108A57"/>
<path d="M469.404 388.108C468.921 388.108 468.469 387.809 468.291 387.327C466.388 382.141 464.986 376.263 464.927 376.016C464.774 375.374 465.167 374.729 465.806 374.576C466.443 374.423 467.081 374.819 467.236 375.461C467.25 375.519 468.665 381.45 470.518 386.499C470.743 387.118 470.429 387.806 469.815 388.034C469.68 388.084 469.541 388.108 469.404 388.108Z" fill="#108A57"/>
<path d="M475.746 385.968C475.269 385.968 474.819 385.675 474.638 385.201C472.667 380.04 471.187 374.182 471.126 373.935C470.963 373.295 471.348 372.646 471.984 372.484C472.619 372.322 473.265 372.71 473.425 373.349C473.441 373.407 474.934 379.319 476.853 384.344C477.088 384.96 476.783 385.652 476.171 385.887C476.031 385.941 475.887 385.968 475.746 385.968Z" fill="#108A57"/>
<path d="M482.083 383.828C481.612 383.828 481.166 383.543 480.981 383.075C478.942 377.94 477.385 372.099 477.32 371.852C477.15 371.217 477.527 370.561 478.161 370.392C478.794 370.221 479.443 370.6 479.612 371.238C479.627 371.296 481.201 377.19 483.184 382.189C483.428 382.803 483.131 383.497 482.523 383.742C482.378 383.8 482.229 383.828 482.083 383.828Z" fill="#108A57"/>
<path d="M488.423 381.687C487.957 381.687 487.517 381.408 487.326 380.95C485.22 375.839 483.585 370.017 483.516 369.773C483.338 369.137 483.705 368.478 484.337 368.299C484.967 368.12 485.624 368.49 485.8 369.126C485.817 369.185 487.466 375.059 489.52 380.034C489.771 380.643 489.484 381.343 488.877 381.595C488.729 381.657 488.575 381.687 488.423 381.687Z" fill="#108A57"/>
<path d="M467.852 221.188C467.711 221.321 467.571 221.448 467.427 221.564C467.008 221.914 466.579 222.211 466.143 222.457C465.341 222.914 464.53 223.211 463.753 223.401C463.679 222.909 463.612 222.41 463.556 221.899C464.112 221.765 464.684 221.571 465.248 221.284C465.706 221.066 466.164 220.79 466.598 220.448C466.771 220.311 466.947 220.161 467.111 220.007C467.384 219.739 467.774 219.798 467.978 220.132C468.182 220.459 468.132 220.939 467.852 221.188Z" fill="#FB9476"/>
<path d="M522.58 254.331C522.339 257.447 521.764 260.559 520.709 263.465C520.441 264.209 520.139 264.938 519.8 265.65V265.654C518.099 269.275 515.526 272.466 511.745 274.8C511.745 274.8 493.304 282.688 471.582 273.007H471.578C470.345 272.456 469.1 271.845 467.845 271.176C466.749 270.593 465.65 269.962 464.549 269.282C455.114 263.465 451.373 255.626 450.351 248.161C450.26 247.494 450.189 246.837 450.139 246.174C449.738 240.91 450.583 235.95 451.592 232.171C451.661 231.92 451.729 231.674 451.797 231.435C452.89 227.584 454.086 225.134 454.086 225.134C454.086 225.134 458.97 222.998 465.376 222.018C467.812 221.646 470.47 221.441 473.163 221.586C476.221 221.745 479.328 222.357 482.212 223.681C502.809 233.139 513.24 237.362 519.216 229.244C519.216 229.244 520.254 232.265 521.201 236.815C521.335 237.46 521.465 238.133 521.594 238.836C521.943 240.765 522.256 242.893 522.461 245.137C522.733 248.076 522.825 251.202 522.58 254.331Z" fill="#0CAD69"/>
<path d="M521.595 238.835C521.321 239.262 521.012 239.696 520.674 240.126C518.064 243.444 512.994 247.263 503.478 247.263C502.894 247.263 502.297 247.25 501.68 247.219C492.453 246.775 485.259 242.941 478.3 239.235C469.994 234.812 461.817 230.694 451.403 232.901L451.594 232.171L451.772 231.521C462.819 229.448 469.473 232.991 478.933 238.031C485.761 241.665 492.822 245.427 501.745 245.853C509.831 246.245 515.826 244.049 519.571 239.33C520.241 238.484 520.777 237.628 521.202 236.814C521.338 237.459 521.466 238.133 521.595 238.835Z" fill="#108E59"/>
<path d="M488.148 372.816L446.394 386.537C446.394 386.537 445.842 384.088 444.987 379.925C444.797 378.997 444.59 377.98 444.374 376.887C443.784 373.931 443.105 370.405 442.388 366.47C442.208 365.473 442.027 364.453 441.844 363.405C441.264 360.113 440.67 356.593 440.093 352.912C439.934 351.891 439.774 350.861 439.618 349.817C439.101 346.376 438.598 342.827 438.14 339.224C438.007 338.18 437.876 337.132 437.75 336.08C437.322 332.515 436.943 328.921 436.628 325.357C436.529 324.289 436.441 323.225 436.361 322.163C436.072 318.448 435.861 314.787 435.756 311.247C435.725 310.158 435.7 309.079 435.689 308.015C435.64 304.049 435.738 300.267 436.02 296.776C436.112 295.631 436.223 294.522 436.357 293.448C436.448 292.669 436.557 291.908 436.671 291.168C437.217 287.709 437.973 284.573 438.886 281.726C439.266 280.531 439.677 279.388 440.11 278.296C447.84 258.758 463.02 254.908 463.02 254.908C474.263 256.031 479.205 268.121 479.205 268.121C476.848 270.381 475.145 273.488 473.978 277.213C473.676 278.18 473.408 279.187 473.179 280.232C472.553 283.03 472.174 286.102 471.998 289.371C471.94 290.386 471.906 291.42 471.888 292.468C471.839 295.523 471.944 298.718 472.177 302C472.248 303.025 472.332 304.056 472.428 305.094C472.719 308.254 473.116 311.48 473.595 314.717C473.748 315.75 473.907 316.777 474.073 317.808C474.594 321.03 475.189 324.255 475.833 327.437C476.036 328.461 476.25 329.477 476.464 330.492C477.159 333.764 477.898 336.976 478.655 340.076C478.9 341.086 479.147 342.082 479.398 343.065C480.234 346.393 481.087 349.568 481.908 352.517C482.189 353.531 482.47 354.521 482.745 355.479C483.758 359.015 484.708 362.152 485.519 364.753C485.854 365.826 486.164 366.804 486.446 367.685C487.493 370.942 488.148 372.816 488.148 372.816Z" fill="#0CAD69"/>
<path d="M520.706 263.465C520.438 264.209 520.136 264.938 519.797 265.65V265.653C516.347 267.647 512.213 269.013 507.432 269.736C504.715 270.149 501.787 270.352 498.664 270.352C494.597 270.352 490.199 270.005 485.506 269.31C471.424 267.213 454.442 259.429 454.319 259.379L453.474 257.919C453.593 257.966 471.786 265.891 485.726 267.961C496.816 269.601 511.186 269.948 520.706 263.465Z" fill="#108E59"/>
<path d="M473.974 277.214C473.672 278.18 473.404 279.186 473.174 280.23C465.784 279.313 452.361 278.459 438.883 281.727C439.262 280.531 439.674 279.388 440.107 278.297C446.805 276.838 453.239 276.353 458.549 276.299C464.817 276.231 470.21 276.722 473.974 277.214Z" fill="#108E59"/>
<path d="M471.994 289.371C471.938 290.385 471.903 291.419 471.886 292.467C463.065 292.086 449.211 292.444 436.017 296.775C436.108 295.632 436.221 294.523 436.353 293.447C445.1 290.741 453.82 289.712 460.667 289.389C464.934 289.188 468.79 289.231 471.994 289.371Z" fill="#108E59"/>
<path d="M472.424 305.093C463.01 305.253 448.872 306.438 435.752 311.249C435.721 310.159 435.697 309.079 435.683 308.014C445.343 304.608 455.215 303.114 462.782 302.48C466.225 302.189 469.399 302.052 472.172 302.002C472.244 303.025 472.329 304.056 472.424 305.093Z" fill="#108E59"/>
<path d="M474.073 317.808C464.35 318.467 449.875 320.309 436.627 325.357C436.53 324.288 436.441 323.225 436.361 322.163C449.685 317.196 463.889 315.375 473.595 314.718C473.749 315.748 473.908 316.777 474.073 317.808Z" fill="#108E59"/>
<path d="M476.461 330.491C466.581 331.618 451.666 334.05 438.137 339.226C438.004 338.181 437.872 337.133 437.746 336.079C451.34 330.963 465.971 328.556 475.829 327.436C476.033 328.461 476.247 329.477 476.461 330.491Z" fill="#108E59"/>
<path d="M479.396 343.066C469.49 344.639 454.041 347.683 440.092 352.912C439.933 351.892 439.774 350.861 439.617 349.817C453.519 344.68 468.737 341.662 478.654 340.074C478.898 341.086 479.145 342.082 479.396 343.066Z" fill="#108E59"/>
<path d="M482.75 355.48C472.952 357.486 456.882 361.201 442.393 366.47C442.214 365.474 442.03 364.454 441.847 363.406C456.273 358.206 472.108 354.534 481.911 352.516C482.193 353.53 482.475 354.52 482.75 355.48Z" fill="#108E59"/>
<path d="M486.444 367.685C476.955 370.088 460.161 374.595 444.987 379.925C444.795 378.996 444.59 377.98 444.372 376.886C459.458 371.61 476.023 367.164 485.519 364.754C485.855 365.825 486.162 366.804 486.444 367.685Z" fill="#108E59"/>
<path d="M522.581 254.331C512.092 262.524 489.198 257.807 468.293 251.608C461.151 249.49 455.201 248.501 450.35 248.162C450.262 247.496 450.19 246.836 450.14 246.176C459.226 246.748 471.749 250.625 486.828 254.074C509.193 259.184 519.033 252.284 522.464 248.173C522.735 251.111 522.827 251.205 522.581 254.331Z" fill="#108E59"/>
<path d="M507.423 212.658C507.078 214.879 507.792 216.837 509.023 217.032C510.257 217.229 511.539 215.583 511.884 213.36C512.02 212.485 511.991 211.654 511.832 210.951C514.025 211.392 514.966 210.124 514.966 210.124C513.51 210.101 511.654 209.494 510.779 209.177C510.469 209.061 510.279 208.986 510.279 208.986C509.05 208.789 507.771 210.432 507.423 212.658Z" fill="#181818"/>
<path d="M510.281 208.985C510.281 208.985 510.471 209.06 510.784 209.177C510.629 209.079 510.462 209.013 510.281 208.985Z" fill="#181818"/>
<path d="M522.705 221.123C521.932 223.224 521.084 225.259 520.184 227.216C519.192 227.225 518.129 227.155 517.033 226.999C512.134 226.301 508.389 224.143 508.667 222.18C508.944 220.218 513.141 219.194 518.034 219.89C519.78 220.138 521.381 220.572 522.705 221.123Z" fill="#FD9B7E"/>
<path d="M486.749 218.326C486.469 220.311 482.232 221.345 477.283 220.64C472.334 219.933 468.549 217.753 468.831 215.769C469.109 213.786 473.348 212.749 478.295 213.455C483.243 214.162 487.028 216.342 486.749 218.326Z" fill="#FD9B7E"/>
<path d="M466.319 205.779C466.587 203.901 465.793 202.039 464.27 200.923C460.494 198.158 455.436 196.592 452.93 201.617C448.278 210.947 456.73 223.448 464.042 221.801L466.319 205.779Z" fill="#FBB990"/>
<path d="M460.776 215.316C460.393 215.259 460.101 214.92 460.111 214.519C460.263 208.222 456.294 204.859 456.254 204.826C455.923 204.55 455.873 204.056 456.146 203.721C456.418 203.383 456.908 203.333 457.243 203.608C457.43 203.763 461.845 207.461 461.673 214.556C461.663 214.991 461.304 215.335 460.875 215.323C460.84 215.323 460.808 215.319 460.776 215.316Z" fill="#FB9476"/>
<path d="M455.788 210.904C455.608 210.876 455.438 210.787 455.313 210.64C455.032 210.312 455.066 209.818 455.392 209.533C455.484 209.453 457.678 207.571 460.142 208.227C460.557 208.339 460.806 208.77 460.696 209.191C460.584 209.609 460.153 209.856 459.739 209.749C458.082 209.307 456.43 210.709 456.412 210.724C456.233 210.878 456.003 210.937 455.788 210.904Z" fill="#FB9476"/>
<path d="M501.713 221.067H501.718H501.713ZM497.791 225.037C497.475 224.989 497.196 224.75 497.132 224.38C497.071 224.033 497.274 223.692 497.592 223.538C499.514 222.621 501.366 221.441 501.689 220.942C501.423 219.509 500.368 213.812 499.983 211.727C499.903 211.299 500.183 210.893 500.608 210.812C501.031 210.733 501.438 211.012 501.518 211.438C501.917 213.593 503.028 219.59 503.248 220.777C503.326 221.187 503.558 222.434 498.241 224.969C498.095 225.039 497.939 225.059 497.791 225.037Z" fill="#FB9476"/>
<path d="M487.871 209.719C487.555 211.944 486.304 213.607 485.071 213.432C483.834 213.256 483.086 211.305 483.401 209.077C483.526 208.202 483.795 207.414 484.15 206.79C481.925 206.568 481.393 205.077 481.393 205.077C482.791 205.483 484.744 205.449 485.673 205.404C486.003 205.383 486.205 205.365 486.205 205.365C487.438 205.541 488.188 207.487 487.871 209.719Z" fill="#181818"/>
<path d="M486.212 205.365C486.212 205.365 486.009 205.382 485.677 205.402C485.853 205.355 486.032 205.338 486.212 205.365Z" fill="#181818"/>
<path d="M518.284 210.649C517.836 209.719 517.249 208.792 516.615 207.959C515.977 207.119 515.259 206.357 514.49 205.686C513.727 205.004 512.887 204.447 512.019 204C511.162 203.524 510.227 203.263 509.324 203.029L509.23 203.005C508.248 202.753 507.658 201.745 507.909 200.757C508.16 199.768 509.161 199.172 510.142 199.427C510.256 199.456 510.371 199.499 510.474 199.548C511.615 200.093 512.722 200.693 513.666 201.492C514.623 202.264 515.478 203.134 516.193 204.089C516.916 205.034 517.531 206.037 518.039 207.081C518.545 208.133 518.954 209.187 519.244 210.336C519.313 210.609 519.15 210.885 518.88 210.955C518.643 211.016 518.403 210.898 518.301 210.684L518.284 210.649Z" fill="#111111"/>
<path d="M476.2 203.907C476.985 202.824 477.859 201.883 478.831 200.993C479.802 200.111 480.867 199.317 482.021 198.63C483.166 197.931 484.422 197.381 485.742 196.978C487.061 196.536 488.464 196.375 489.877 196.282C490.888 196.216 491.759 196.989 491.825 198.005C491.889 199.022 491.124 199.899 490.114 199.965C490.013 199.972 489.914 199.968 489.817 199.96L489.699 199.947C488.619 199.835 487.498 199.743 486.379 199.915C485.259 200.047 484.127 200.313 483.034 200.74C481.937 201.153 480.864 201.685 479.842 202.329C478.829 202.97 477.835 203.726 476.984 204.548L476.956 204.574C476.756 204.768 476.436 204.76 476.243 204.558C476.07 204.377 476.058 204.101 476.2 203.907Z" fill="#111111"/>
<path d="M477.843 183.93C482.343 188.79 491.63 195.193 522.302 200.983C539.533 203.252 525.285 169.178 497.552 170.233C485.976 169.547 479.986 171.597 476.921 174.173C472.783 174.853 467.588 176.863 462.717 180.627C462.717 180.627 466.074 191.102 477.843 183.93Z" fill="#002014"/>
<path d="M524.16 197.824C524.16 197.824 526.194 213 522.704 221.123C522.704 221.123 529.549 207.26 527.508 198.673C525.467 190.086 524.16 197.824 524.16 197.824Z" fill="#002014"/>
<path d="M525.253 526.984C521.46 529.724 516.29 537.913 507.31 540.787C456.303 557.122 408.703 525.42 408.703 525.42C405.877 511.36 407.625 495.387 412.331 489.539C410.851 487.462 411.83 484.978 411.83 484.978L389.368 443.07C389.912 443.414 424.603 465.485 450.31 481.12H450.32C457.728 485.623 464.388 489.593 469.268 492.35C476.715 496.558 486.221 496.969 495.535 495.678C513.69 493.154 531.106 484.151 531.106 484.151C531.106 484.151 574.543 458.374 585.505 459.264C594.029 459.952 563.187 507.252 525.253 526.984Z" fill="#108E59"/>
<path d="M429.183 569.386C429.183 569.386 426.437 569.904 421.975 570.825C420.704 571.088 419.295 571.378 417.774 571.703C415.754 572.132 413.533 572.612 411.165 573.142C409.814 573.443 408.416 573.759 406.977 574.088C389.094 578.187 365.415 584.422 355.88 590.519C355.212 590.946 354.562 591.37 353.939 591.795C339.41 601.627 336.438 610.116 333.742 608.394C330.93 606.6 330.299 599.239 334.889 594.399C338.066 591.045 340.29 586.153 344.558 580.865C345.711 579.435 347.013 577.975 348.524 576.508C355.198 570.036 365.878 563.347 371.842 558.206C372.227 557.875 372.592 557.548 372.935 557.23C377.844 552.674 379.76 543.296 388.717 540.446C393.095 539.056 398.341 539.598 403.403 540.942C404.302 541.179 405.197 541.445 406.075 541.727C407.393 542.15 408.681 542.617 409.923 543.098C411.637 543.774 413.263 544.484 414.747 545.181C416.168 545.849 417.463 546.503 418.579 547.089C421.271 548.51 422.935 549.565 422.935 549.565L429.183 569.386Z" fill="white"/>
<path d="M403.397 540.942C398.103 547.916 385.91 561.246 371.837 558.206C372.222 557.875 372.586 557.549 372.93 557.23C377.839 552.674 379.756 543.296 388.713 540.445C393.09 539.056 398.336 539.599 403.397 540.942Z" fill="#80D7B2"/>
<path d="M353.938 591.795C339.409 601.626 336.437 610.116 333.743 608.395C330.928 606.601 330.3 599.238 334.888 594.398C338.067 591.044 340.291 586.154 344.557 580.866C348.151 583.433 351.975 587.071 353.938 591.795Z" fill="#80D7B2"/>
<path d="M421.971 570.825C420.7 571.086 419.292 571.378 417.77 571.703C415.124 566.841 413.796 560.911 413.877 554.147C413.919 550.729 414.309 547.623 414.743 545.181C416.165 545.85 417.459 546.503 418.574 547.09C418.258 549.146 418.005 551.593 417.975 554.229C417.915 559.559 418.787 565.663 421.971 570.825Z" fill="#80D7B2"/>
<path d="M409.919 543.098C408.678 542.617 407.39 542.151 406.072 541.727C405.218 544.224 403.993 548.432 403.441 553.379C402.545 561.397 403.76 568.439 406.974 574.087C408.412 573.759 409.811 573.443 411.161 573.142C404.364 562.665 408.103 548.467 409.919 543.098Z" fill="#80D7B2"/>
<path d="M643.598 493.305C624.449 516.84 581.395 540.915 535.349 554.884C519.36 559.734 505.634 563.375 493.92 566.103C484.696 568.256 476.715 569.838 469.865 570.994C443.417 575.458 433.697 573.599 433.697 573.599C433.697 573.599 417.378 568.317 424.374 541.638C424.374 541.638 455.311 534.481 479.282 522.557C484.17 520.127 488.769 517.495 492.756 514.685C493.69 514.027 494.62 513.358 495.538 512.678C517.817 496.254 536.867 473.945 587.073 453.779C587.073 453.779 613.332 437.73 634.44 444.927C637.588 445.997 640.569 447.544 643.262 449.679C658.558 461.79 656.526 477.426 643.598 493.305Z" fill="#0CAD69"/>
<path d="M549.817 547.673L539.836 549.053L479.29 522.557C484.177 520.125 488.775 517.496 492.764 514.685C493.696 514.027 494.627 513.358 495.546 512.679L549.817 547.673Z" fill="#108E59"/>
<path d="M493.926 566.102C484.701 568.256 476.72 569.837 469.87 570.993C450.602 565.727 427.532 555.901 427.532 555.901L429.035 543.859L493.926 566.102Z" fill="#108E59"/>
<path d="M643.596 493.306C627.792 471.929 630.931 454.03 634.439 444.927C637.589 445.999 640.567 447.544 643.262 449.679C658.557 461.79 656.524 477.426 643.596 493.306Z" fill="#108E59"/>
<path d="M427.006 549.595C443.108 546.422 476.222 532.819 515.587 513.208C545.029 498.54 579.069 479.64 584.235 472.801C587.026 469.108 587.821 466.022 586.596 463.631C584.763 460.052 579.08 459.447 576.48 459.362C575.81 459.34 575.262 459.887 575.282 460.563C575.301 461.175 575.783 461.669 576.392 461.689C578.946 461.781 583.373 462.412 584.541 464.697C585.512 466.597 583.909 469.387 582.393 471.391C578.226 476.908 549.699 493.615 514.562 511.121C484.306 526.194 445.298 543.618 426.562 547.311L427.006 549.595Z" fill="#108E59"/>
<path d="M430.485 538.314C431.681 552.547 434.783 565.572 442.311 575.78C442.311 575.78 435.3 580.42 429.234 576.616C424.602 573.71 416.384 551.207 420.373 539.553C424.436 537.541 427.893 536.926 430.485 538.314Z" fill="#108E59"/>
<path d="M541.364 575.133C541.364 575.133 544.069 575.828 548.462 577.043C549.712 577.386 551.101 577.773 552.598 578.195C554.585 578.756 556.77 579.382 559.099 580.066C560.427 580.456 561.803 580.862 563.215 581.284C580.794 586.554 604.017 594.336 613.135 601.044C613.776 601.517 614.395 601.982 614.991 602.448C628.849 613.214 631.264 621.879 634.063 620.341C636.989 618.737 638.094 611.432 633.831 606.3C630.876 602.743 628.975 597.716 625.062 592.156C624.003 590.655 622.8 589.112 621.387 587.549C615.148 580.65 604.926 573.275 599.309 567.751C598.945 567.396 598.602 567.046 598.281 566.704C593.68 561.835 592.376 552.353 583.622 548.917C579.346 547.242 574.075 547.437 568.938 548.445C568.023 548.624 567.113 548.828 566.219 549.053C564.875 549.39 563.561 549.769 562.29 550.169C560.536 550.73 558.868 551.333 557.341 551.929C555.878 552.503 554.545 553.069 553.394 553.584C550.616 554.821 548.885 555.763 548.885 555.763L541.364 575.133Z" fill="white"/>
<path d="M568.939 548.444C573.768 555.754 585.07 569.856 599.309 567.75C598.946 567.395 598.604 567.046 598.282 566.705C593.68 561.834 592.376 552.353 583.623 548.917C579.346 547.243 574.078 547.438 568.939 548.444Z" fill="#80D7B2"/>
<path d="M614.989 602.448C628.846 613.214 631.263 621.88 634.062 620.341C636.987 618.737 638.092 611.431 633.828 606.299C630.874 602.743 628.974 597.716 625.06 592.156C621.306 594.482 617.255 597.864 614.989 602.448Z" fill="#80D7B2"/>
<path d="M548.463 577.042C549.713 577.386 551.1 577.772 552.599 578.194C555.553 573.518 557.264 567.688 557.624 560.932C557.803 557.519 557.617 554.394 557.343 551.93C555.88 552.502 554.545 553.068 553.393 553.583C553.577 555.654 553.671 558.111 553.529 560.747C553.243 566.067 551.976 572.099 548.463 577.042Z" fill="#80D7B2"/>
<path d="M559.101 580.066C560.428 580.456 561.803 580.862 563.217 581.284C566.79 575.86 568.462 568.915 568.088 560.853C567.857 555.881 566.909 551.602 566.218 549.052C564.876 549.389 563.562 549.769 562.291 550.168C563.756 555.642 566.562 570.056 559.101 580.066Z" fill="#80D7B2"/>
<path d="M546.486 548.132C551.732 575.218 535.106 579.411 535.106 579.411C535.106 579.411 510.332 582.479 434.889 554.046C391.393 537.654 351.286 512.037 332.757 488.016C319.153 470.381 317.182 453.599 334.044 441.96C337.929 439.278 342.285 437.742 346.817 437.026C367.692 433.73 392.352 447.868 392.352 447.868C443.155 472.264 430.439 480.648 472.806 507.809C497.036 523.342 546.486 548.132 546.486 548.132Z" fill="#0CAD69"/>
<path d="M346.817 437.026C347.625 446.184 349.009 476.807 332.757 488.016C319.153 470.381 317.182 453.598 334.045 441.96C337.931 439.278 342.284 437.742 346.817 437.026Z" fill="#108E59"/>
<path d="M543.348 555.899C527.486 551.673 495.326 535.92 457.32 513.759C428.896 497.185 396.158 476.083 391.447 468.92C388.902 465.05 388.31 461.918 389.686 459.615C391.747 456.162 397.46 455.935 400.059 456.02C400.729 456.043 401.24 456.625 401.176 457.296C401.117 457.906 400.603 458.366 399.995 458.349C397.439 458.273 392.982 458.61 391.668 460.815C390.575 462.645 391.994 465.533 393.376 467.636C397.175 473.412 424.557 491.964 458.48 511.746C487.692 528.779 525.485 548.732 543.94 553.649L543.348 555.899Z" fill="#108E59"/>
<path d="M540.605 544.413C538.485 558.539 534.544 571.329 526.368 581.019C526.368 581.019 533.062 586.111 539.362 582.716C544.173 580.123 553.836 558.208 550.616 546.317C546.691 544.04 543.281 543.201 540.605 544.413Z" fill="#108E59"/>
<path d="M616.671 436.528C611.039 443.781 603.268 447.839 597.1 451.988C582.265 461.972 552.166 468.285 554.427 433.892C556.694 399.504 582.543 413.439 563.524 353.04C555.407 327.269 549.816 274.147 549.816 274.147C549.816 274.147 592.304 304.104 617.444 377.987C619.404 383.742 620.886 388.995 621.957 393.797C626.819 415.611 623.161 428.182 616.671 436.528Z" fill="#FBB243"/>
<path d="M616.668 436.528C607.45 419.964 615.095 403.59 621.954 393.797C626.816 415.611 623.157 428.182 616.668 436.528Z" fill="#C7831E"/>
<path d="M554.329 440.048C553.859 440.048 553.437 439.719 553.336 439.238C553.274 438.944 551.846 431.946 554.682 422.642C557.287 414.1 564.152 401.947 582.068 392.562C582.569 392.298 583.182 392.495 583.44 392.996C583.701 393.498 583.506 394.117 583.009 394.377C565.772 403.409 559.168 415 556.662 423.135C553.942 431.955 555.312 438.744 555.325 438.812C555.442 439.365 555.09 439.908 554.542 440.025C554.469 440.041 554.398 440.048 554.329 440.048Z" fill="#C7831E"/>
<path d="M569.766 402.574C569.628 402.588 569.483 402.572 569.343 402.526C568.808 402.345 568.521 401.764 568.703 401.229C572 391.347 574.114 387.118 574.202 386.942C574.456 386.438 575.068 386.237 575.57 386.493C576.071 386.749 576.271 387.364 576.017 387.868C575.995 387.91 573.873 392.168 570.631 401.88C570.499 402.275 570.153 402.536 569.766 402.574Z" fill="#C7831E"/>
<path d="M570.916 398.074C570.354 398.074 569.899 397.615 569.899 397.05C569.899 376.92 543.171 331.344 542.901 330.885C542.614 330.398 542.773 329.769 543.256 329.481C543.74 329.192 544.363 329.354 544.651 329.839C545.766 331.73 571.933 376.363 571.933 397.05C571.933 397.615 571.479 398.074 570.916 398.074Z" fill="#C7831E"/>
<path d="M551.997 346.345C551.785 346.345 551.571 346.279 551.388 346.141C547.929 343.539 539.177 341.239 539.089 341.216C538.545 341.075 538.219 340.516 538.361 339.97C538.501 339.421 539.057 339.092 539.599 339.235C539.974 339.333 548.827 341.658 552.607 344.501C553.055 344.84 553.149 345.481 552.812 345.934C552.612 346.202 552.306 346.345 551.997 346.345Z" fill="#C7831E"/>
<path d="M539.54 490.101C539.706 491.919 539.861 493.818 540.082 495.351C540.498 498.248 541.155 499.833 542.586 497.078C542.904 496.458 543.161 495.665 543.372 494.754C544.605 489.441 544.199 480.088 544.768 478.049C545.413 475.733 548.098 469.145 548.333 468.773C548.211 469.047 547.001 473.075 546.861 475.561C546.729 477.891 546.861 480.724 546.861 486.462C546.861 488.964 546.953 491.552 547.267 493.434V493.44C547.671 495.872 548.452 497.111 549.9 495.424C550.614 494.594 551.07 493.135 551.367 491.409C552.147 486.927 551.868 480.598 552.278 478.527C552.831 475.75 555.071 471.263 555.213 470.981C554.364 473.838 554.364 473.557 553.893 477.311C553.559 479.933 552.952 486.91 553.595 490.037C553.869 491.385 554.382 492.022 555.248 491.283C556.601 490.131 557.54 488.441 558.203 486.509C558.949 484.34 559.343 481.86 559.594 479.485C560.066 474.987 561.874 472.215 561.874 472.215C560.871 477.086 560.322 481.798 560.619 484.231C560.824 485.952 561.451 486.532 562.632 485.223C564.936 482.675 567.262 474.251 568.066 471.083C568.094 470.987 568.116 470.889 568.139 470.797C568.168 470.7 568.185 470.615 568.21 470.533C568.317 470.108 568.373 469.867 568.373 469.867L568.379 469.862C569.047 467.222 569.65 464.583 570.534 462.219C571.846 458.706 573.796 455.798 577.548 454.399C586.061 451.214 583.447 434.919 571.515 433.941C568.038 433.656 564.597 434.815 561.869 437.001C560.132 438.393 557.681 440.338 555.202 442.244L555.196 442.25C554.958 442.556 547.198 452.228 544.768 458.253C542.301 464.37 540.208 474.033 539.733 476.805C539.255 479.577 539.068 484.838 539.54 490.101Z" fill="#FAB893"/>
<path d="M351.976 444.564C357.643 452.001 365.462 456.163 371.667 460.419C386.594 470.657 416.878 477.127 414.603 441.861C412.323 406.6 386.316 420.89 405.452 358.954C413.618 332.529 416.103 280.343 416.103 280.343C416.103 280.343 376.494 308.773 351.198 384.535C349.226 390.436 347.735 395.822 346.66 400.748C341.767 423.116 345.448 436.007 351.976 444.564Z" fill="#FBB243"/>
<path d="M352.21 446.012C361.428 429.447 353.035 412.851 346.178 403.058C341.315 424.871 345.723 437.667 352.21 446.012Z" fill="#C7831E"/>
<path d="M414.549 449.533C415.018 449.533 415.442 449.204 415.542 448.723C415.604 448.429 417.032 441.431 414.195 432.127C411.591 423.585 404.725 411.433 386.809 402.045C386.309 401.783 385.696 401.98 385.436 402.481C385.177 402.981 385.371 403.6 385.869 403.862C403.106 412.892 409.711 424.485 412.217 432.62C414.934 441.438 413.567 448.229 413.553 448.297C413.437 448.85 413.787 449.392 414.337 449.51C414.407 449.526 414.478 449.533 414.549 449.533Z" fill="#C7831E"/>
<path d="M399.116 412.058C399.256 412.072 399.399 412.057 399.54 412.009C400.072 411.828 400.359 411.248 400.181 410.713C396.882 400.832 394.768 396.602 394.68 396.426C394.426 395.923 393.815 395.721 393.313 395.978C392.811 396.233 392.611 396.848 392.865 397.354C392.886 397.394 395.01 401.652 398.253 411.365C398.384 411.759 398.729 412.02 399.116 412.058Z" fill="#C7831E"/>
<path d="M397.964 407.557C398.527 407.557 398.981 407.099 398.981 406.534C398.981 386.405 425.709 340.828 425.979 340.37C426.267 339.882 426.107 339.254 425.623 338.965C425.141 338.676 424.517 338.838 424.23 339.325C423.115 341.214 396.947 385.846 396.947 406.534C396.947 407.099 397.403 407.557 397.964 407.557Z" fill="#C7831E"/>
<path d="M416.883 355.83C417.096 355.83 417.308 355.764 417.491 355.625C420.95 353.023 429.701 350.724 429.789 350.702C430.333 350.561 430.662 350.001 430.52 349.453C430.378 348.906 429.822 348.578 429.28 348.719C428.905 348.816 420.052 351.143 416.272 353.986C415.823 354.323 415.731 354.966 416.066 355.419C416.267 355.687 416.572 355.83 416.883 355.83Z" fill="#C7831E"/>
<path d="M429.341 499.585C429.175 501.404 429.021 503.304 428.8 504.834C428.382 507.731 427.726 509.318 426.296 506.563C425.977 505.942 425.72 505.15 425.509 504.239C424.278 498.924 424.682 489.571 424.112 487.534C423.468 485.216 420.782 478.629 420.55 478.257C420.669 478.532 421.879 482.56 422.019 485.046C422.151 487.374 422.019 490.208 422.019 495.947C422.019 498.45 421.929 501.037 421.615 502.919V502.924C421.211 505.358 420.428 506.597 418.98 504.909C418.268 504.079 417.812 502.62 417.516 500.893C416.735 496.411 417.014 490.082 416.604 488.01C416.049 485.233 413.81 480.747 413.667 480.466C414.516 483.323 414.516 483.042 414.99 486.795C415.321 489.416 415.93 496.394 415.286 499.522C415.013 500.87 414.499 501.506 413.632 500.768C412.281 499.614 411.34 497.926 410.68 495.993C409.932 493.825 409.54 491.345 409.288 488.97C408.815 484.47 407.008 481.699 407.008 481.699C408.011 486.572 408.559 491.282 408.262 493.714C408.057 495.436 407.429 496.014 406.248 494.706C403.945 492.16 401.619 483.735 400.816 480.569C400.787 480.471 400.764 480.373 400.742 480.282C400.712 480.183 400.697 480.098 400.673 480.018C400.566 479.594 400.509 479.352 400.509 479.352L400.502 479.346C399.835 476.708 399.231 474.068 398.347 471.704C397.036 468.192 395.087 465.283 391.334 463.882C382.82 460.698 385.435 444.404 397.366 443.424C400.844 443.14 404.285 444.298 407.014 446.485C408.751 447.878 411.199 449.823 413.678 451.729L413.684 451.735C413.924 452.039 421.684 461.713 424.112 467.738C426.581 473.856 428.674 483.518 429.147 486.289C429.626 489.06 429.814 494.324 429.341 499.585Z" fill="#FAB893"/>
<path d="M473.974 277.214C473.672 278.18 473.404 279.186 473.174 280.23C465.784 279.313 452.361 278.459 438.883 281.727C439.262 280.531 439.674 279.388 440.107 278.297C446.805 276.838 453.239 276.353 458.549 276.299C464.817 276.231 470.21 276.722 473.974 277.214Z" fill="#108E59"/>
<path fill-rule="evenodd" clip-rule="evenodd" d="M447.099 266.351C447.099 266.351 460.465 267.72 475.382 273.589C475.382 273.589 459.345 266.479 454.331 259.397C451.614 261.535 448.919 263.691 447.099 266.351Z" fill="#108E59"/>
</svg>
