<svg width="78" height="78" viewBox="0 0 78 78" fill="none" xmlns="http://www.w3.org/2000/svg">
<rect width="78" height="78" rx="15" fill="#049A5B"/>
<path fill-rule="evenodd" clip-rule="evenodd" d="M40.7276 51.0407C34.9989 48.8013 30.3308 44.5571 27.584 39.094L27.4076 38.746C27.3048 38.5421 27.2981 38.3039 27.3883 38.0932C27.4784 37.883 27.6592 37.7247 27.8784 37.6574L28.2595 37.5428C29.1178 37.2869 29.8902 36.8027 30.495 36.1404L31.7383 34.7794C32.6217 33.8109 33.0737 32.5601 33.0068 31.2553C33.0001 31.1274 32.9847 31.0022 32.9682 30.8782C32.8182 29.7061 32.2717 28.6667 31.3867 27.8757L29.2875 25.993C28.3804 25.1808 27.2064 24.7324 25.9824 24.7324C25.7249 24.7324 25.4513 24.7584 25.143 24.8107C24.258 24.9619 23.4324 25.3489 22.7533 25.9285C22.5757 26.0796 22.4395 26.2104 22.3198 26.3399L21.0761 27.7037C20.9371 27.8533 20.8068 28.0187 20.6832 28.1946C20.6623 28.2238 20.6415 28.2513 20.6178 28.2773L20.5596 28.3391C20.5387 28.3639 20.5151 28.3876 20.4887 28.408C19.6493 29.1195 18.6005 31.2085 19.1548 34.0479C19.2982 34.7825 19.473 35.5243 19.6911 36.3153C23.1005 48.7159 34.0627 57.818 46.967 58.9645C48.3233 59.0869 49.6248 58.8916 50.7362 58.4003C51.002 58.2829 51.2201 58.1719 51.4036 58.0589C51.8784 57.7877 52.2843 57.4632 52.6288 57.0861L53.8736 55.7223C54.0571 55.5211 54.2264 55.2931 54.4055 55.0014C54.6933 54.54 54.8961 54.0628 55.0103 53.5809C55.4268 51.8372 54.8587 50.0123 53.5252 48.8178L51.4256 46.9394C50.7851 46.3658 49.9961 45.9666 49.1429 45.7863C48.7929 45.7119 48.4465 45.6749 48.1162 45.6749C46.7241 45.6749 45.389 46.2611 44.454 47.2835L43.2119 48.6474C42.7532 49.1481 42.4115 49.7265 42.1945 50.3651L42.0823 50.6938C42.0142 50.8946 41.867 51.0584 41.6737 51.149C41.4804 51.2387 41.2583 51.247 41.0583 51.1714L40.7276 51.0407ZM51.3626 26.5667C48.2949 23.5284 44.0587 21.6461 39.3879 21.6461C39.0213 21.6461 38.6871 21.4973 38.4449 21.2563C38.2036 21.0174 38.0536 20.6866 38.0536 20.3229C38.0536 19.9603 38.2036 19.6295 38.4453 19.3894C38.6867 19.1488 39.0205 19 39.3879 19C44.7949 19 49.6981 21.1788 53.2488 24.6962C56.8 28.2135 59 33.0711 59 38.4263C59 38.7913 58.8496 39.122 58.6087 39.361C58.3657 39.5996 58.0315 39.748 57.665 39.748C57.2976 39.748 56.963 39.5996 56.7221 39.361C56.4807 39.122 56.3307 38.7913 56.3307 38.4263C56.3307 33.8006 54.4303 29.6049 51.3626 26.5667ZM46.6898 31.1947C44.765 29.2876 42.1064 28.1057 39.1757 28.1057C38.8087 28.1057 38.4745 27.9572 38.2327 27.7183C37.9898 27.4793 37.8398 27.1486 37.8398 26.784C37.8398 26.419 37.9898 26.0879 38.2312 25.8485C38.4729 25.6096 38.8071 25.4611 39.1757 25.4611C42.843 25.4611 46.1689 26.9395 48.5768 29.325C50.9855 31.7105 52.478 35.0066 52.478 38.6385C52.478 39.0019 52.328 39.333 52.0866 39.5724C51.8453 39.813 51.5114 39.9614 51.1437 39.9614C50.7748 39.9614 50.4406 39.813 50.1992 39.574C49.9579 39.3346 49.8075 39.0035 49.8075 38.6385C49.8075 35.7349 48.6146 33.1014 46.6898 31.1947Z" fill="white"/>
</svg>
