<svg width="78" height="78" viewBox="0 0 78 78" fill="none" xmlns="http://www.w3.org/2000/svg">
<rect width="78" height="78" rx="15" fill="#049A5B"/>
<path fill-rule="evenodd" clip-rule="evenodd" d="M38.9997 55.5069C36.0799 55.5069 33.2043 54.7297 30.6881 53.2601C30.4186 53.1023 30.1154 53.0206 29.8086 53.0206C29.6526 53.0206 29.4973 53.0412 29.3457 53.0836L23.8766 54.5831L25.7809 50.3871C26.0404 49.817 25.9737 49.1514 25.6075 48.6443C23.5697 45.8199 22.4931 42.4859 22.4931 38.9997C22.4931 29.8977 29.8984 22.4931 38.9997 22.4931C48.1016 22.4931 55.5063 29.8977 55.5063 38.9997C55.5063 48.1016 48.1016 55.5069 38.9997 55.5069ZM38.9997 19C27.9716 19 19 27.9722 19 38.9997C19 42.8789 20.1022 46.6052 22.1943 49.8382L19.1566 56.5311C18.8765 57.1487 18.9782 57.871 19.4173 58.3868C19.7535 58.7811 20.2425 59 20.7465 59C20.9006 59 21.0559 58.98 21.2087 58.9376L29.5796 56.6416C32.4701 58.1866 35.7106 59 38.9997 59C50.0278 59 58.9994 50.0278 58.9994 38.9997C58.9994 27.9722 50.0278 19 38.9997 19Z" fill="white"/>
<path fill-rule="evenodd" clip-rule="evenodd" d="M46.6895 41.9953C45.8512 41.4938 44.7609 40.9343 43.7741 41.3385C43.0168 41.6479 42.5334 42.8324 42.045 43.4381C41.7924 43.7487 41.4923 43.7974 41.105 43.6408C38.2625 42.5093 36.0849 40.6125 34.5168 37.9983C34.2523 37.5928 34.2997 37.2722 34.6204 36.8961C35.0938 36.3378 35.6882 35.7041 35.8167 34.9531C35.9446 34.2021 35.5922 33.3232 35.2815 32.6545C34.8848 31.7987 34.4407 30.5786 33.5849 30.0952C32.7971 29.6505 31.7592 29.8993 31.058 30.4707C29.8467 31.4563 29.2616 33.0013 29.2797 34.5333C29.2847 34.9687 29.339 35.4022 29.44 35.822C29.6839 36.8331 30.1511 37.7762 30.6763 38.6732C31.0736 39.3493 31.5034 40.0062 31.9681 40.6368C33.4876 42.7014 35.3789 44.4954 37.5683 45.8365C38.663 46.5064 39.8406 47.094 41.0601 47.4969C42.4292 47.9498 43.6481 48.4195 45.1264 48.1388C46.6727 47.845 48.1978 46.8875 48.8122 45.3973C48.9931 44.9551 49.0842 44.4636 48.9837 43.9976C48.7735 43.0339 47.4674 42.4613 46.6895 41.9953Z" fill="white"/>
</svg>
